<?xml version="1.0" encoding="UTF-8" standalone="no"?>
<svg
   version="1.0"
   width="702.17993pt"
   height="890.20996pt"
   viewBox="0 0 702.17994 890.20996"
   preserveAspectRatio="xMidYMid"
   id="svg1"
   sodipodi:docname="favicon.svg"
   inkscape:version="1.4.2 (f4327f4, 2025-05-13)"
   xmlns:inkscape="http://www.inkscape.org/namespaces/inkscape"
   xmlns:sodipodi="http://sodipodi.sourceforge.net/DTD/sodipodi-0.dtd"
   xmlns="http://www.w3.org/2000/svg"
   xmlns:svg="http://www.w3.org/2000/svg">
  <defs
     id="defs1" />
  <sodipodi:namedview
     id="namedview1"
     pagecolor="#505050"
     bordercolor="#ffffff"
     borderopacity="1"
     inkscape:showpageshadow="0"
     inkscape:pageopacity="0"
     inkscape:pagecheckerboard="1"
     inkscape:deskcolor="#505050"
     inkscape:document-units="pt"
     showgrid="false"
     inkscape:zoom="0.31996582"
     inkscape:cx="153.14136"
     inkscape:cy="601.62676"
     inkscape:window-width="1366"
     inkscape:window-height="745"
     inkscape:window-x="-8"
     inkscape:window-y="-8"
     inkscape:window-maximized="1"
     inkscape:current-layer="svg1"
     showguides="false" />
  <g
     transform="matrix(0.1078951,0,0,-0.10870281,-112.4281,947.82244)"
     fill="#ffffff"
     stroke="none"
     id="g1">
    <path
       d="m 6923,8700 c -87,-26 -159,-69 -224,-137 -50,-51 -181,-207 -566,-673 -57,-69 -113,-136 -125,-150 -12,-14 -60,-72 -107,-129 -47,-57 -102,-123 -121,-146 -19,-23 -53,-64 -75,-90 -22,-27 -56,-67 -75,-90 -19,-23 -53,-64 -75,-90 -22,-27 -56,-67 -75,-90 -19,-23 -53,-64 -75,-90 -22,-27 -56,-67 -75,-90 -19,-23 -53,-64 -75,-90 -22,-27 -56,-67 -75,-90 -19,-23 -73,-89 -120,-146 -47,-57 -94,-113 -105,-125 -11,-12 -45,-52 -75,-89 -30,-37 -102,-125 -160,-194 -58,-70 -121,-147 -141,-171 -71,-86 -109,-125 -109,-110 0,8 -1,528 -3,1155 -3,1118 -4,1141 -23,1190 -54,131 -91,184 -179,250 -95,72 -168,95 -295,95 -171,0 -300,-63 -398,-195 -42,-57 -56,-84 -83,-170 -18,-58 -19,-114 -19,-1392 0,-1037 -3,-1333 -12,-1333 -7,0 -35,24 -63,54 -27,30 -187,195 -355,368 -168,172 -357,367 -420,432 -205,213 -431,445 -615,631 -164,167 -187,186 -260,221 l -80,39 h -135 c -134,-1 -136,-1 -205,-35 -118,-59 -214,-166 -265,-300 -22,-56 -24,-221 -5,-283 23,-69 51,-129 73,-153 10,-10 23,-27 28,-36 5,-9 83,-92 174,-185 91,-93 291,-300 445,-459 154,-159 339,-350 411,-424 302,-310 354,-366 354,-377 0,-10 -93,-13 -431,-13 -260,0 -458,-4 -500,-11 -334,-52 -515,-402 -369,-713 44,-91 144,-185 247,-231 92,-41 160,-45 787,-45 584,0 596,0 596,-20 0,-10 -6,-23 -12,-27 -7,-4 -31,-30 -53,-58 -22,-27 -54,-66 -73,-86 -18,-20 -45,-52 -60,-71 -34,-45 -97,-122 -137,-168 -16,-20 -48,-57 -70,-84 -94,-115 -159,-193 -184,-221 -23,-26 -58,-69 -136,-164 -11,-14 -34,-41 -51,-60 -246,-288 -298,-375 -309,-516 -10,-116 12,-218 67,-303 15,-24 28,-45 28,-48 0,-12 105,-100 153,-128 91,-54 152,-69 263,-64 92,3 105,7 186,46 90,43 145,91 239,202 51,61 230,277 317,384 32,38 73,88 92,111 19,24 55,67 79,97 23,29 57,69 75,88 17,19 49,58 71,85 58,73 97,115 106,115 5,0 10,-489 12,-1088 3,-1194 -1,-1119 66,-1236 89,-158 242,-246 428,-246 84,0 176,20 236,51 49,25 125,91 157,136 37,52 70,111 70,128 0,5 8,24 18,40 16,28 17,105 22,1080 l 5,1050 95,-96 c 52,-52 196,-200 320,-328 124,-128 254,-263 290,-300 384,-396 704,-726 791,-816 128,-133 401,-414 610,-627 138,-141 162,-161 229,-192 207,-95 428,-52 587,117 46,48 103,148 103,179 0,8 5,19 11,25 17,17 13,210 -6,263 -26,75 -52,122 -96,175 -35,43 -271,290 -562,588 -45,46 -188,193 -317,327 -259,267 -246,253 -651,671 -157,162 -298,308 -313,324 -35,38 -550,567 -594,611 -19,18 -31,38 -27,43 4,8 149,11 451,11 271,0 519.0853,0.1881 561.0853,7.1881 181,28 387.447,74.5738 456.447,251.5738 29,77 42.3618,330.4262 11.3618,412.4262 -38,99 -170.0427,226 -248.0427,263 -124,57 -271.8514,65.8119 -733.8514,65.8119 -316,0 -403,3 -403,13 0,6 120,157 268,333 147,177 348,419 447,539 99,120 185,223 190,229 6,6 68,81 139,166 151,183 189,229 236,285 19,23 53,64 75,90 22,27 56,67 75,90 19,23 53,64 75,90 22,27 56,67 75,90 19,23 53,64 75,90 22,27 56,67 75,90 19,23 73,88 118,144 46,56 97,116 112,134 41,47 90,106 235,282 72,87 149,181 173,209 100,118 142,226 142,362 0,73 -5,107 -24,159 -54,148 -171,261 -331,317 -65,24 -190,23 -272,-2 z"
       id="path1"
       sodipodi:nodetypes="cccssscscscscssssccscccsccsscccccccccccssscsscccsscccccccccccscccccccccsccsccsccccscccccssccccccccsccccsscsccccscscsccccsccc" />
  </g>
</svg>
